<svg width="4400" height="2475" xmlns="http://www.w3.org/2000/svg" xmlns:xlink="http://www.w3.org/1999/xlink" xml:space="preserve" overflow="hidden"><defs><clipPath id="clip0"><rect x="2581" y="1014" width="1438" height="427"/></clipPath><clipPath id="clip1"><rect x="2581" y="1014" width="1438" height="427"/></clipPath><clipPath id="clip2"><rect x="2581" y="1014" width="1438" height="427"/></clipPath><clipPath id="clip3"><rect x="408" y="1034" width="1384" height="407"/></clipPath><clipPath id="clip4"><rect x="408" y="1034" width="1384" height="407"/></clipPath><clipPath id="clip5"><rect x="408" y="1034" width="1384" height="407"/></clipPath></defs><g><rect x="0" y="0" width="2200" height="2475" fill="#222222"/><rect x="2200" y="0" width="2200" height="2475" fill="#D1D3D4"/><g clip-path="url(#clip0)"><g clip-path="url(#clip1)"><g clip-path="url(#clip2)"><path d="M103.039 333.546 103.039 403.665C103.039 412.735 95.6734 420.101 86.603 420.101L16.4682 420.101C7.41393 420.101 0.0321645 412.719 0.0321645 403.665L0.0321645 333.546C0.0321645 324.476 7.39784 317.11 16.4682 317.11L86.603 317.11C95.6573 317.11 103.039 324.492 103.039 333.546ZM261.353 143.309 16.4361 143.309C7.36568 143.309 0 150.691 0 159.745L0 229.848C0 238.918 7.38176 246.284 16.4361 246.284L173.946 246.284 173.946 403.649C173.946 412.719 181.328 420.085 190.382 420.085L260.565 420.085C269.635 420.085 277.001 412.703 277.001 403.649L277.001 158.973C277.001 150.337 269.973 143.309 261.337 143.309Z" fill="#006838" transform="matrix(1 0 0 1.0009 2582.84 1014)"/><path d="M1406.84 189.883 1408.61 189.883 1395.04 176.181C1369.02 149.951 1334.04 136.667 1291.07 136.667 1248.1 136.667 1213.07 149.822 1186.82 175.747 1160.48 201.816 1147.12 237.567 1147.12 281.987 1147.12 309.648 1153.11 334.688 1164.95 356.383 1176.93 378.303 1193.98 395.704 1215.63 408.104 1237.14 420.391 1262.28 426.63 1290.38 426.63 1318.47 426.63 1343.69 420.407 1365.4 408.152 1387.3 395.753 1404.48 378.335 1416.48 356.399 1428.31 334.688 1434.31 309.439 1434.31 281.343 1434.31 245.013 1425.08 214.345 1406.84 189.899ZM1234.7 282.035C1234.7 259.938 1240.44 242.119 1251.3 230.491 1262.28 218.687 1274.68 213.187 1290.34 213.187 1306.01 213.187 1319.49 218.912 1330.18 230.218 1341.15 241.829 1346.71 259.246 1346.71 282.019 1346.71 304.791 1341.5 321.372 1330.79 332.903L1329.71 334.077C1319.44 344.579 1306.89 349.5 1290.34 349.5 1273.8 349.5 1261.98 344.434 1250.94 332.581 1240.17 320.97 1234.7 303.987 1234.7 282.067ZM1132.95 149.26C1135.83 153.312 1136.57 158.555 1134.91 163.283L1133 168.671 1132.96 168.671 1047.79 409.921C1045.64 416 1039.86 420.101 1033.41 420.101L953.807 420.101C947.358 420.101 941.569 416.016 939.43 409.921L852.393 163.315C850.704 158.587 851.411 153.328 854.29 149.276 857.008 145.432 861.383 143.132 866.046 143.132L922.077 143.422C936.728 143.422 940.041 150.45 942.727 159.681L993.611 304.341 1044.51 159.665C1047.25 150.45 1050.56 143.422 1065.11 143.422L1121.19 143.132 1121.24 143.132C1125.9 143.132 1130.17 145.368 1132.93 149.243ZM604.291 272.241C618.283 266.194 629.685 258.828 639.093 249.742 666.9 222.916 678.72 188.774 674.233 148.246 669.441 105.307 647.344 72.0003 608.537 49.26 582.403 33.9497 553.214 31.5213 528.11 31.1674 514.198 30.9745 494.626 30.8619 469.972 30.8619 435.508 30.8619 401.928 31.0549 388.998 31.1674 380.41 31.1996 373.398 38.2436 373.398 46.8798L373.398 404.855C373.398 413.266 380.233 420.101 388.644 420.101L449.307 420.101C457.717 420.101 464.552 413.266 464.552 404.855L464.552 290.784C467.158 290.784 469.747 290.784 472.336 290.784 477.483 290.784 482.597 290.8 487.679 290.8 497.875 290.8 505.739 290.751 513.217 290.655L513.346 290.655C513.716 290.655 513.973 290.671 514.134 290.687 514.247 290.848 514.424 291.121 514.649 291.539 528.077 316.612 541.844 342.022 555.144 366.595 563.346 381.745 571.548 396.894 579.734 412.076 582.403 417.013 587.55 420.085 593.162 420.085L670.534 420.085C674.201 420.085 677.61 418.123 679.46 414.955 681.293 411.803 681.325 407.862 679.524 404.678 663.12 375.762 624.812 308.281 604.291 272.209ZM583.014 165.036C580.474 200.417 553.391 208.507 537.47 210.179 519.216 212.077 501.14 212.833 482.002 213.637 476.276 213.878 470.439 214.119 464.552 214.409L464.552 109.649C469.249 109.649 473.928 109.633 478.624 109.617 484.607 109.601 490.574 109.585 496.556 109.585 508.537 109.585 518.203 109.665 526.968 109.858 543.533 110.212 555.08 113.605 564.391 120.874 578.27 131.698 584.365 146.156 583.031 165.052ZM811.544 159.182 811.544 404.871C811.544 413.282 804.709 420.117 796.298 420.117L736.102 420.117C727.691 420.117 720.856 413.282 720.856 404.871L720.856 159.182C720.856 150.434 727.755 143.309 736.246 143.309L796.169 143.309C804.66 143.309 811.56 150.434 811.56 159.182Z" fill="#222222" transform="matrix(1 0 0 1.0009 2582.84 1014)"/><path d="M796.298 0C801.165-1.42839e-15 805.111 3.94575 805.111 8.81308L805.111 69.0412C805.111 73.9085 801.165 77.8543 796.298 77.8543L736.069 77.8543C731.202 77.8543 727.256 73.9085 727.256 69.0412L727.256 8.81309C727.256 3.94575 731.202 7.97537e-07 736.069 7.97537e-07Z" fill="#006838" transform="matrix(1 0 0 1.0009 2582.84 1014)"/></g></g></g><g clip-path="url(#clip3)"><g clip-path="url(#clip4)"><g clip-path="url(#clip5)"><path d="M84.7562 323.538 84.7562 391.882C84.7562 396.396 81.0882 400.064 76.5737 400.064L8.21384 400.064C3.69936 400.064 0.0313505 396.396 0.0313505 391.882L0.0313505 323.538C0.0313505 319.023 3.69936 315.355 8.21384 315.355L76.5737 315.355C81.0882 315.355 84.7562 319.023 84.7562 323.538ZM246.901 145.952 8.18249 145.952C3.66801 145.952 0 149.62 0 154.135L0 222.463C0 226.978 3.66801 230.646 8.18249 230.646L162.114 230.646C166.221 230.646 169.544 233.969 169.544 238.076L169.544 391.866C169.544 396.38 173.212 400.049 177.726 400.049L246.133 400.049C250.648 400.049 254.316 396.38 254.316 391.866L254.316 153.382C254.316 149.276 250.992 145.952 246.885 145.952Z" fill="#1EA358" transform="matrix(1 0 0 1.00145 408.83 1034)"/><path d="M1346.33 175.673C1322.54 151.674 1290.28 139.479 1250.56 139.479 1210.84 139.479 1178.51 151.548 1154.45 175.312 1130.33 199.186 1118.09 232.151 1118.09 273.283 1118.09 298.927 1123.63 322.095 1134.51 342.05 1145.47 362.099 1161.07 378.04 1180.93 389.405 1200.69 400.691 1223.88 406.428 1249.9 406.428 1275.92 406.428 1299.21 400.691 1319.17 389.436 1339.23 378.072 1354.95 362.13 1365.93 342.066 1376.84 322.064 1382.35 298.708 1382.35 272.671 1382.35 232.402 1370.22 199.797 1346.33 175.704L1346.35 175.704ZM1295.06 328.24C1283.43 340.812 1268.66 346.909 1249.85 346.909 1231.04 346.909 1217.58 340.686 1205.71 327.911 1193.81 315.12 1187.78 296.717 1187.78 273.33 1187.78 249.942 1193.91 230.756 1206.07 217.745 1218.17 204.735 1232.52 198.386 1249.85 198.386 1267.19 198.386 1282.27 204.641 1294.37 217.432 1306.47 230.223 1312.63 249.049 1312.63 273.298 1312.63 297.548 1306.74 315.622 1295.03 328.224L1295.06 328.224ZM1090.95 155.013 1090.92 155.013 1006.07 395.393C1005.08 398.199 1002.42 400.08 999.439 400.08L921.862 400.08C918.884 400.08 916.219 398.199 915.232 395.393L830.397 155.013C828.814 150.561 831.855 145.796 836.276 145.796L890.935 146.078C900.074 146.078 901.375 148.805 903.601 156.486L957.445 309.555C958.793 313.85 962.336 314.258 963.888 309.555L1017.73 156.486C1019.99 148.805 1021.26 146.078 1030.4 146.078L1085.06 145.796C1089.48 145.796 1092.52 150.561 1090.97 155.013ZM569.953 259.943C571.991 259.112 573.605 258.438 575.235 257.78 587.979 252.591 599.704 245.82 609.643 236.226 635.946 210.848 645.508 179.623 641.542 143.805 637.027 103.284 616.038 73.564 581.333 53.2175 558.384 39.7682 532.614 37.025 506.797 36.6645 468.393 36.1158 394.923 36.4763 371.378 36.6645 367.256 36.6801 363.948 40.019 363.948 44.1416L363.948 393.057C363.948 396.945 367.099 400.08 370.971 400.08L430.098 400.08C433.985 400.08 437.121 396.929 437.121 393.057L437.121 274.019C456.025 274.019 474.161 274.16 492.282 273.925 496.514 273.878 498.646 275.117 500.684 278.91 521.704 318.145 542.991 357.208 564.122 396.38 565.344 398.653 567.727 400.064 570.298 400.064L645.711 400.064C647.42 400.064 648.486 398.23 647.655 396.757 637.592 379.012 589.735 294.695 569.937 259.927ZM568.244 159.856C565.987 191.364 544.763 208.168 516.845 211.099 490.62 213.826 464.176 214.203 437.121 215.676L437.121 97.9077C438.484 97.7666 439.832 97.4845 441.149 97.4845 462.75 97.4845 484.366 97.218 505.951 97.6726 520.67 97.9861 535.028 100.667 547.083 110.056 563.322 122.722 569.671 139.855 568.244 159.856ZM775.33 153.586 775.33 393.057C775.33 396.945 772.179 400.08 768.308 400.08L709.635 400.08C705.748 400.08 702.613 396.929 702.613 393.057L702.613 153.586C702.613 149.37 705.826 145.952 709.776 145.952L768.182 145.952C772.132 145.952 775.346 149.37 775.346 153.586Z" fill="#D1D3D4" transform="matrix(1 0 0 1.00145 408.83 1034)"/><path d="M768.308 0C772.186-1.39224e-15 775.33 3.14409 775.33 7.02252L775.33 65.7264C775.33 69.6048 772.186 72.7489 768.308 72.7489L709.604 72.7489C705.725 72.7489 702.581 69.6048 702.581 65.7264L702.581 7.02252C702.581 3.14409 705.725 7.77353e-07 709.604 7.77353e-07Z" fill="#1EA358" transform="matrix(1 0 0 1.00145 408.83 1034)"/></g></g></g></g></svg>