<svg xmlns="http://www.w3.org/2000/svg" xmlns:xlink="http://www.w3.org/1999/xlink" width="259" height="259" xml:space="preserve" overflow="hidden"><defs><clipPath id="clip0"><path d="M801.495 148 939.505 148C972.916 148 1000 175.084 1000 208.495L1000 346.505C1000 379.916 972.916 407 939.505 407L801.495 407C768.084 407 741 379.916 741 346.505L741 208.495C741 175.084 768.084 148 801.495 148Z" fill-rule="evenodd" clip-rule="evenodd"/></clipPath></defs><g transform="translate(-741 -148)"><g clip-path="url(#clip0)"><path d="M741 148 1000 148 1000 407 741 407Z"/><path d="M843.061 300.579C845.54 300.579 847.549 302.588 847.549 305.067L847.549 342.122C847.549 344.6 845.54 346.609 843.061 346.609L805.878 346.609C803.4 346.609 801.391 344.6 801.391 342.122L801.391 305.067C801.391 302.588 803.4 300.579 805.878 300.579Z" fill="#1EA358"/><path d="M939.738 212.365 939.738 342.122C939.738 344.558 937.686 346.609 935.25 346.609L898.067 346.609C895.631 346.609 893.579 344.558 893.579 342.122L893.579 258.396C893.579 256.216 891.784 254.293 889.476 254.293L805.75 254.293C803.314 254.293 801.262 252.241 801.262 249.805L801.262 212.622C801.262 210.186 803.314 208.134 805.75 208.134L935.635 208.134C937.814 208.134 939.738 209.929 939.738 212.237Z" fill="#1EA358"/></g></g></svg>